<?xml version="1.0" encoding="UTF-8" standalone="no"?> <svg xmlns="http://www.w3.org/2000/svg" xmlns:xlink="http://www.w3.org/1999/xlink" xmlns:serif="http://www.serif.com/" width="100%" height="100%" viewBox="0 0 2251 2920" version="1.1" xml:space="preserve" style="fill-rule:evenodd;clip-rule:evenodd;stroke-linejoin:round;stroke-miterlimit:2;"><path d="M178.566,2828.48l18.007,-0l0,52.87c0,3.357 0.358,6.383 1.072,9.077c0.715,2.694 1.882,4.991 3.501,6.89c1.62,1.9 3.764,3.357 6.432,4.373c2.667,1.016 5.954,1.524 9.86,1.524c3.907,-0 7.194,-0.508 9.861,-1.524c2.668,-1.016 4.812,-2.473 6.431,-4.373c1.62,-1.899 2.787,-4.196 3.502,-6.89c0.714,-2.694 1.071,-5.72 1.071,-9.077l0,-52.87l18.007,-0l0,55.785c0,4.947 -0.857,9.541 -2.572,13.781c-1.715,4.24 -4.24,7.928 -7.574,11.064c-3.335,3.137 -7.408,5.61 -12.219,7.421c-4.812,1.811 -10.314,2.716 -16.507,2.716c-6.192,0 -11.695,-0.905 -16.506,-2.716c-4.811,-1.811 -8.884,-4.284 -12.219,-7.421c-3.334,-3.136 -5.859,-6.824 -7.574,-11.064c-1.715,-4.24 -2.573,-8.834 -2.573,-13.781l0,-55.785Zm1229.9,-0l18.007,-0l0,88.382l-18.007,0l0,-88.382Zm-874.904,-0l18.15,-0l46.16,62.808l-0,-62.808l17.578,-0l0,88.382l-17.721,0l-46.589,-63.603l-0,63.603l-17.578,0l-0,-88.382Zm-479.04,-0l18.007,-0l0,35.512l47.304,-0l-0,-35.512l18.007,-0l-0,88.382l-18.007,0l-0,-38.029l-47.304,-0l0,38.029l-18.007,0l0,-88.382Zm785.013,-0l18.579,-0l36.157,88.382l-20.008,0l-8.289,-22.394l-35.442,0l-8.289,22.394l-18.864,0l36.156,-88.382Zm-539.062,-0l16.721,-0l26.438,41.74l26.01,-41.74l16.721,-0l4.573,88.382l-17.578,0l-3.144,-61.218l-22.866,36.042l-8.432,-0l-23.009,-35.115l-3.144,60.291l-16.863,0l4.573,-88.382Zm1167.44,-0l18.149,-0l46.161,62.808l-0,-62.808l17.578,-0l-0,88.382l-17.721,0l-46.589,-63.603l-0,63.603l-17.578,0l-0,-88.382Zm123.332,-0l18.007,-0l0,88.382l-18.007,0l0,-88.382Zm432.451,-0l18.006,-0l0,88.382l-18.006,0l-0,-88.382Zm-1365.38,-0l18.006,-0l0,88.382l-18.006,0l-0,-88.382Zm371.855,-0l18.007,-0l0,88.382l-18.007,0l0,-88.382Zm-577.791,-0l18.579,-0l36.156,88.382l-20.007,0l-8.289,-22.394l-35.442,0l-8.289,22.394l-18.865,0l36.157,-88.382Zm661.252,-0l18.578,-0l36.157,88.382l-20.008,0l-8.289,-22.394l-35.442,0l-8.288,22.394l-18.865,0l36.157,-88.382Zm647.675,-0l18.007,-0l-0,88.382l-18.007,0l-0,-88.382Zm-1017.96,14.708l-32.298,-0l-0,-14.708l82.603,-0l-0,14.708l-32.298,-0l-0,73.674l-18.007,0l-0,-73.674Zm1442.12,-14.708l61.737,-0l0,14.708l-43.731,-0l0,20.804l32.155,-0l0,14.841l-32.155,-0l0,23.056l47.018,-0l0,14.973l-65.024,0l-0,-88.382Zm-1260.48,-0l31.583,-0c6.002,-0 11.099,0.839 15.292,2.517c4.192,1.679 7.574,3.821 10.146,6.427c2.573,2.606 4.454,5.455 5.645,8.547c1.191,3.091 1.787,6.051 1.787,8.878c-0,5.565 -1.31,10.49 -3.93,14.774c-2.62,4.285 -6.646,7.708 -12.076,10.27l22.008,36.969l-20.293,0l-19.294,-34.849l-13.576,-0l-0,34.849l-17.292,0l-0,-88.382Zm751.286,14.708l-32.298,-0l-0,-14.708l82.602,-0l0,14.708l-32.298,-0l0,73.674l-18.006,0l-0,-73.674Zm393.292,-14.708l20.008,-0l25.295,67.446l25.296,-67.446l18.864,-0l-35.442,88.382l-18.579,0l-35.442,-88.382Zm-224.8,-0l18.579,-0l36.156,88.382l-20.007,0l-8.289,-22.394l-35.442,0l-8.289,22.394l-18.864,0l36.156,-88.382Zm93.893,14.708l-32.298,-0l0,-14.708l82.603,-0l0,14.708l-32.298,-0l0,73.674l-18.007,0l0,-73.674Zm-739.567,-14.708l18.15,-0l46.16,62.808l0,-62.808l17.578,-0l0,88.382l-17.721,0l-46.589,-63.603l0,63.603l-17.578,0l-0,-88.382Zm-725.419,52.208l-12.576,-34.32l-12.72,34.32l25.296,-0Zm1392.39,-0l-12.576,-34.32l-12.719,34.32l25.295,-0Zm-731.135,-0l-12.577,-34.32l-12.719,34.32l25.296,-0Zm-274.105,-0l-12.576,-34.32l-12.719,34.32l25.295,-0Zm95.894,-12.456c4.573,-0 8.122,-1.237 10.647,-3.71c2.525,-2.474 3.787,-5.477 3.787,-9.011c-0,-3.798 -1.334,-6.89 -4.002,-9.275c-2.667,-2.386 -6.145,-3.578 -10.432,-3.578l-14.434,-0l-0,25.574l14.434,-0Zm-880.909,-262.168c13.225,12.262 30.465,23.43 51.721,33.503c21.255,10.073 44.636,15.109 70.142,15.109c6.141,0 12.517,-0.547 19.13,-1.642c6.613,-1.095 12.517,-2.956 17.713,-5.584c5.195,-2.628 9.446,-6.131 12.753,-10.511c3.306,-4.379 4.959,-10.073 4.959,-17.08c0,-11.387 -6.258,-20.803 -18.775,-28.248c-12.517,-7.445 -30.82,-14.89 -54.91,-22.336l-26.214,-7.883c-14.643,-4.379 -29.404,-10.073 -44.282,-17.08c-14.879,-7.007 -28.223,-15.438 -40.031,-25.292c-11.809,-9.854 -21.373,-21.459 -28.695,-34.817c-7.321,-13.358 -10.982,-29.014 -10.982,-46.97c0,-20.146 4.015,-38.869 12.045,-56.168c8.03,-17.299 19.72,-32.409 35.071,-45.328c15.351,-12.92 34.363,-22.993 57.035,-30.219c22.673,-7.226 48.887,-10.839 78.645,-10.839c23.144,-0 44.164,1.97 63.057,5.912c18.894,3.942 35.426,8.759 49.596,14.453c14.17,5.693 26.215,11.824 36.134,18.394c9.919,6.569 17.476,12.481 22.672,17.737l-63.766,74.89c-16.532,-11.387 -33.772,-20.694 -51.721,-27.92c-17.949,-7.226 -36.37,-10.839 -55.264,-10.839c-6.14,-0 -12.28,0.657 -18.421,1.971c-6.14,1.313 -11.69,3.284 -16.65,5.912c-4.959,2.628 -8.974,6.022 -12.045,10.182c-3.07,4.161 -4.605,9.307 -4.605,15.438c0,6.57 1.771,12.263 5.314,17.08c3.543,4.818 8.384,8.979 14.524,12.482c6.141,3.504 13.58,6.679 22.318,9.526c8.739,2.846 18.067,5.802 27.987,8.868l22.672,6.569c16.059,4.818 32.355,10.402 48.887,16.752c16.532,6.351 31.411,14.891 44.636,25.62c13.226,10.73 24.089,24.088 32.592,40.073c8.502,15.985 12.753,35.584 12.753,58.795c-0,20.146 -5.078,38.759 -15.233,55.84c-10.155,17.08 -23.853,31.751 -41.094,44.014c-17.24,12.263 -37.551,21.788 -60.932,28.576c-23.38,6.789 -48.296,10.183 -74.747,10.183c-47.234,-0 -86.793,-5.803 -118.676,-17.409c-31.883,-11.606 -58.924,-27.263 -81.124,-46.97l75.811,-84.744Zm1305.78,-299.561l340.084,0l0,100.511l-214.678,-0l-0,67.664l176.419,-0l-0,94.597l-176.419,0l-0,74.891l229.557,-0l-0,100.51l-354.963,-0l-0,-438.173Zm-917.52,0l340.084,0l0,100.511l-214.678,-0l-0,67.664l176.419,-0l-0,94.597l-176.419,0l-0,74.891l229.557,-0l-0,100.51l-354.963,-0l-0,-438.173Zm391.805,0l136.743,0l106.276,304.816l99.192,-304.816l133.908,0l-172.168,438.173l-132.491,-0l-171.46,-438.173Zm974.201,0l114.07,0l181.379,244.378l-0,-244.378l123.989,0l-0,438.173l-106.985,-0l-188.464,-251.604l0,251.604l-123.989,-0l0,-438.173Zm420.124,-1828.83l-0,-477.669l-2203.69,-0l0,480.962l2088.68,-0c-412.267,23.653 -752.079,171.21 -1092.48,324.389c-303.406,136.534 -607.098,279.365 -996.2,279.365l0,477.795l0,480.836l2203.69,0l-0,-480.962l-2086.15,0c421.346,-23.682 765.396,-171.388 1105.4,-324.389c302.977,-136.341 601.453,-279.365 980.753,-279.365l-0,-480.962l-0,0Z" style="fill:#faa619;"></path></svg> 